<svg xmlns="http://www.w3.org/2000/svg" xmlns:xlink="http://www.w3.org/1999/xlink" width="1500" zoomAndPan="magnify" viewBox="0 0 1125 1124.99995" height="1500" preserveAspectRatio="xMidYMid meet" version="1.0"><path fill="#fc2947" d="M 472.710938 74.109375 C 475.039062 75.261719 477.210938 76.65625 479.226562 78.289062 C 481.246094 79.925781 483.058594 81.761719 484.667969 83.796875 C 486.28125 85.832031 487.648438 88.019531 488.773438 90.359375 C 489.902344 92.699219 490.757812 95.132812 491.34375 97.664062 C 492.609375 103.21875 527.34375 251.859375 527.34375 351.5625 C 527.34375 418.359375 496.265625 477.914062 447.890625 516.515625 C 430.3125 530.578125 421.875 545.90625 421.875 558.703125 L 421.875 592.875 C 421.875 594.515625 421.96875 596.0625 422.15625 597.515625 C 424.546875 614.953125 433.195312 679.710938 441.28125 746.859375 C 449.226562 812.742188 457.03125 884.601562 457.03125 914.0625 C 457.03125 916.363281 456.976562 918.664062 456.863281 920.960938 C 456.75 923.261719 456.578125 925.554688 456.355469 927.847656 C 456.128906 930.136719 455.847656 932.417969 455.507812 934.695312 C 455.171875 936.972656 454.777344 939.238281 454.328125 941.496094 C 453.878906 943.753906 453.375 946 452.816406 948.230469 C 452.257812 950.464844 451.644531 952.679688 450.976562 954.882812 C 450.308594 957.085938 449.585938 959.269531 448.8125 961.4375 C 448.035156 963.605469 447.207031 965.75 446.328125 967.878906 C 445.445312 970.003906 444.511719 972.105469 443.53125 974.1875 C 442.546875 976.269531 441.511719 978.324219 440.425781 980.351562 C 439.339844 982.382812 438.207031 984.382812 437.023438 986.359375 C 435.839844 988.332031 434.609375 990.277344 433.332031 992.1875 C 432.054688 994.101562 430.726562 995.984375 429.355469 997.832031 C 427.984375 999.679688 426.570312 1001.496094 425.109375 1003.273438 C 423.652344 1005.054688 422.148438 1006.796875 420.601562 1008.5 C 419.058594 1010.207031 417.46875 1011.871094 415.84375 1013.5 C 414.214844 1015.125 412.550781 1016.714844 410.84375 1018.257812 C 409.140625 1019.804688 407.398438 1021.308594 405.617188 1022.765625 C 403.839844 1024.226562 402.023438 1025.640625 400.175781 1027.011719 C 398.328125 1028.382812 396.445312 1029.710938 394.535156 1030.988281 C 392.621094 1032.265625 390.675781 1033.496094 388.703125 1034.679688 C 386.726562 1035.863281 384.726562 1036.996094 382.695312 1038.082031 C 380.667969 1039.167969 378.613281 1040.203125 376.53125 1041.1875 C 374.449219 1042.167969 372.347656 1043.101562 370.222656 1043.984375 C 368.09375 1044.863281 365.949219 1045.691406 363.78125 1046.46875 C 361.613281 1047.242188 359.429688 1047.964844 357.226562 1048.632812 C 355.023438 1049.300781 352.808594 1049.914062 350.574219 1050.472656 C 348.34375 1051.03125 346.097656 1051.535156 343.839844 1051.984375 C 341.582031 1052.433594 339.316406 1052.828125 337.039062 1053.164062 C 334.765625 1053.503906 332.480469 1053.785156 330.191406 1054.011719 C 327.898438 1054.234375 325.605469 1054.40625 323.304688 1054.519531 C 321.007812 1054.632812 318.707031 1054.6875 316.40625 1054.6875 C 314.105469 1054.6875 311.804688 1054.632812 309.507812 1054.519531 C 307.207031 1054.40625 304.914062 1054.234375 302.621094 1054.011719 C 300.332031 1053.785156 298.046875 1053.503906 295.773438 1053.164062 C 293.496094 1052.828125 291.230469 1052.433594 288.972656 1051.984375 C 286.714844 1051.535156 284.46875 1051.03125 282.238281 1050.472656 C 280.003906 1049.914062 277.789062 1049.300781 275.585938 1048.632812 C 273.382812 1047.964844 271.199219 1047.242188 269.03125 1046.46875 C 266.863281 1045.691406 264.71875 1044.863281 262.589844 1043.984375 C 260.464844 1043.101562 258.363281 1042.167969 256.28125 1041.1875 C 254.199219 1040.203125 252.144531 1039.167969 250.117188 1038.082031 C 248.085938 1036.996094 246.085938 1035.863281 244.109375 1034.679688 C 242.136719 1033.496094 240.191406 1032.265625 238.277344 1030.988281 C 236.367188 1029.710938 234.484375 1028.382812 232.636719 1027.011719 C 230.789062 1025.640625 228.972656 1024.226562 227.195312 1022.765625 C 225.414062 1021.308594 223.671875 1019.804688 221.96875 1018.257812 C 220.261719 1016.714844 218.597656 1015.125 216.96875 1013.5 C 215.34375 1011.871094 213.753906 1010.207031 212.210938 1008.5 C 210.664062 1006.796875 209.160156 1005.054688 207.703125 1003.273438 C 206.242188 1001.496094 204.824219 999.679688 203.457031 997.832031 C 202.085938 995.984375 200.757812 994.101562 199.480469 992.1875 C 198.203125 990.277344 196.972656 988.332031 195.789062 986.359375 C 194.605469 984.382812 193.472656 982.382812 192.386719 980.351562 C 191.300781 978.324219 190.265625 976.269531 189.28125 974.1875 C 188.296875 972.105469 187.367188 970.003906 186.484375 967.878906 C 185.605469 965.75 184.777344 963.605469 184 961.4375 C 183.226562 959.269531 182.503906 957.085938 181.835938 954.882812 C 181.167969 952.679688 180.554688 950.464844 179.996094 948.230469 C 179.4375 946 178.933594 943.753906 178.484375 941.496094 C 178.035156 939.238281 177.640625 936.972656 177.304688 934.695312 C 176.964844 932.417969 176.683594 930.136719 176.457031 927.847656 C 176.234375 925.554688 176.0625 923.261719 175.949219 920.960938 C 175.835938 918.664062 175.78125 916.363281 175.78125 914.0625 C 175.78125 884.53125 183.585938 812.8125 191.53125 746.859375 C 199.617188 679.710938 208.265625 614.953125 210.65625 597.515625 L 210.9375 592.875 L 210.9375 558.703125 C 210.9375 545.90625 202.5 530.578125 184.921875 516.515625 C 181.835938 514.054688 178.820312 511.511719 175.878906 508.882812 C 172.933594 506.253906 170.066406 503.542969 167.277344 500.753906 C 164.484375 497.960938 161.773438 495.097656 159.144531 492.152344 C 156.515625 489.210938 153.96875 486.195312 151.507812 483.113281 C 149.046875 480.027344 146.671875 476.875 144.390625 473.65625 C 142.105469 470.4375 139.914062 467.15625 137.8125 463.816406 C 135.710938 460.476562 133.707031 457.078125 131.796875 453.625 C 129.890625 450.167969 128.078125 446.664062 126.367188 443.109375 C 124.652344 439.554688 123.042969 435.953125 121.53125 432.304688 C 120.019531 428.660156 118.613281 424.972656 117.308594 421.25 C 116.003906 417.523438 114.808594 413.765625 113.714844 409.972656 C 112.621094 406.179688 111.636719 402.359375 110.757812 398.511719 C 109.878906 394.664062 109.109375 390.796875 108.449219 386.90625 C 107.789062 383.015625 107.238281 379.109375 106.792969 375.1875 C 106.351562 371.265625 106.019531 367.332031 105.800781 363.394531 C 105.578125 359.453125 105.46875 355.507812 105.46875 351.5625 C 105.46875 252.210938 139.921875 104.34375 141.46875 97.734375 C 141.695312 96.765625 141.960938 95.808594 142.269531 94.863281 C 142.574219 93.917969 142.921875 92.984375 143.308594 92.070312 C 143.691406 91.152344 144.113281 90.253906 144.574219 89.371094 C 145.035156 88.488281 145.53125 87.628906 146.066406 86.789062 C 146.597656 85.949219 147.167969 85.132812 147.769531 84.34375 C 148.371094 83.550781 149.003906 82.785156 149.667969 82.046875 C 150.335938 81.308594 151.03125 80.597656 151.757812 79.917969 C 152.480469 79.238281 153.234375 78.589844 154.015625 77.972656 C 154.792969 77.355469 155.597656 76.773438 156.425781 76.222656 C 157.257812 75.671875 158.105469 75.160156 158.980469 74.683594 C 159.851562 74.203125 160.742188 73.761719 161.652344 73.359375 C 162.558594 72.957031 163.484375 72.59375 164.425781 72.265625 C 165.363281 71.941406 166.316406 71.65625 167.277344 71.410156 C 168.242188 71.164062 169.214844 70.960938 170.195312 70.796875 C 171.175781 70.632812 172.164062 70.511719 173.15625 70.429688 C 174.144531 70.347656 175.136719 70.308594 176.132812 70.3125 C 195.820312 70.3125 211.78125 86.273438 211.78125 105.960938 L 211.78125 316.757812 C 211.710938 317.941406 211.703125 319.125 211.753906 320.3125 C 211.808594 321.496094 211.917969 322.675781 212.09375 323.847656 C 212.265625 325.023438 212.496094 326.183594 212.789062 327.332031 C 213.078125 328.480469 213.429688 329.613281 213.835938 330.726562 C 214.242188 331.84375 214.703125 332.933594 215.222656 334 C 215.742188 335.066406 216.3125 336.101562 216.9375 337.113281 C 217.5625 338.121094 218.234375 339.09375 218.960938 340.03125 C 219.683594 340.972656 220.453125 341.871094 221.269531 342.734375 C 222.085938 343.59375 222.941406 344.410156 223.84375 345.183594 C 224.742188 345.957031 225.679688 346.679688 226.652344 347.359375 C 227.625 348.035156 228.632812 348.660156 229.667969 349.234375 C 230.707031 349.808594 231.769531 350.332031 232.863281 350.796875 C 233.953125 351.261719 235.0625 351.671875 236.195312 352.023438 C 237.328125 352.375 238.476562 352.667969 239.640625 352.902344 C 240.800781 353.136719 241.972656 353.3125 243.152344 353.425781 C 244.332031 353.542969 245.515625 353.597656 246.703125 353.589844 C 247.890625 353.585938 249.070312 353.519531 250.25 353.390625 C 251.429688 353.265625 252.597656 353.078125 253.757812 352.832031 C 254.917969 352.585938 256.0625 352.28125 257.191406 351.917969 C 258.320312 351.554688 259.429688 351.132812 260.515625 350.65625 C 261.601562 350.179688 262.660156 349.648438 263.691406 349.0625 C 264.722656 348.480469 265.722656 347.84375 266.6875 347.15625 C 267.65625 346.46875 268.585938 345.734375 269.476562 344.953125 C 270.367188 344.171875 271.21875 343.34375 272.023438 342.476562 C 272.832031 341.605469 273.59375 340.699219 274.308594 339.753906 C 275.023438 338.804688 275.6875 337.824219 276.300781 336.8125 C 276.914062 335.796875 277.476562 334.753906 277.984375 333.679688 C 278.492188 332.609375 278.941406 331.515625 279.335938 330.398438 C 279.734375 329.277344 280.070312 328.144531 280.351562 326.992188 C 280.628906 325.839844 280.851562 324.675781 281.011719 323.5 C 281.171875 322.324219 281.273438 321.144531 281.3125 319.957031 C 281.351562 318.773438 281.332031 317.589844 281.25 316.40625 L 281.25 105.46875 C 281.25 104.316406 281.304688 103.167969 281.417969 102.023438 C 281.53125 100.875 281.699219 99.738281 281.925781 98.609375 C 282.148438 97.480469 282.429688 96.363281 282.765625 95.261719 C 283.097656 94.160156 283.484375 93.078125 283.925781 92.015625 C 284.367188 90.953125 284.859375 89.910156 285.402344 88.894531 C 285.945312 87.878906 286.535156 86.894531 287.175781 85.9375 C 287.816406 84.980469 288.5 84.054688 289.230469 83.164062 C 289.960938 82.277344 290.734375 81.421875 291.546875 80.609375 C 292.359375 79.796875 293.214844 79.023438 294.101562 78.292969 C 294.992188 77.5625 295.917969 76.878906 296.875 76.238281 C 297.832031 75.597656 298.816406 75.007812 299.832031 74.464844 C 300.847656 73.921875 301.890625 73.429688 302.953125 72.988281 C 304.015625 72.546875 305.097656 72.160156 306.199219 71.828125 C 307.300781 71.492188 308.417969 71.210938 309.546875 70.988281 C 310.675781 70.761719 311.816406 70.59375 312.960938 70.480469 C 314.105469 70.367188 315.253906 70.3125 316.40625 70.3125 C 317.558594 70.3125 318.707031 70.367188 319.851562 70.480469 C 320.996094 70.59375 322.136719 70.761719 323.265625 70.988281 C 324.394531 71.210938 325.511719 71.492188 326.613281 71.828125 C 327.714844 72.160156 328.796875 72.546875 329.859375 72.988281 C 330.921875 73.429688 331.964844 73.921875 332.980469 74.464844 C 333.996094 75.007812 334.980469 75.597656 335.9375 76.238281 C 336.894531 76.878906 337.820312 77.5625 338.710938 78.292969 C 339.597656 79.023438 340.453125 79.796875 341.265625 80.609375 C 342.078125 81.421875 342.851562 82.277344 343.582031 83.164062 C 344.3125 84.054688 344.996094 84.980469 345.636719 85.9375 C 346.277344 86.894531 346.867188 87.878906 347.410156 88.894531 C 347.953125 89.910156 348.445312 90.953125 348.886719 92.015625 C 349.328125 93.078125 349.714844 94.160156 350.046875 95.261719 C 350.382812 96.363281 350.664062 97.480469 350.886719 98.609375 C 351.113281 99.738281 351.28125 100.875 351.394531 102.023438 C 351.507812 103.167969 351.5625 104.316406 351.5625 105.46875 L 351.5625 318.234375 C 351.585938 319.375 351.667969 320.507812 351.804688 321.640625 C 351.941406 322.773438 352.132812 323.894531 352.378906 325.007812 C 352.625 326.121094 352.925781 327.21875 353.28125 328.300781 C 353.632812 329.382812 354.042969 330.449219 354.5 331.492188 C 354.960938 332.535156 355.46875 333.550781 356.027344 334.546875 C 356.585938 335.539062 357.191406 336.503906 357.84375 337.4375 C 358.5 338.371094 359.195312 339.269531 359.9375 340.132812 C 360.679688 341 361.460938 341.828125 362.285156 342.613281 C 363.109375 343.402344 363.96875 344.148438 364.863281 344.855469 C 365.761719 345.558594 366.691406 346.214844 367.652344 346.828125 C 368.613281 347.441406 369.601562 348.003906 370.617188 348.519531 C 371.632812 349.035156 372.671875 349.5 373.734375 349.914062 C 374.796875 350.328125 375.875 350.6875 376.972656 350.996094 C 378.070312 351.304688 379.179688 351.558594 380.304688 351.753906 C 381.425781 351.953125 382.554688 352.097656 383.691406 352.183594 C 384.828125 352.273438 385.964844 352.304688 387.105469 352.28125 C 388.246094 352.253906 389.378906 352.175781 390.511719 352.039062 C 391.644531 351.90625 392.765625 351.714844 393.878906 351.46875 C 394.992188 351.222656 396.089844 350.921875 397.171875 350.566406 C 398.257812 350.214844 399.320312 349.808594 400.363281 349.351562 C 401.40625 348.890625 402.425781 348.382812 403.417969 347.824219 C 404.414062 347.265625 405.375 346.660156 406.3125 346.007812 C 407.246094 345.355469 408.144531 344.660156 409.011719 343.917969 C 409.875 343.175781 410.703125 342.394531 411.492188 341.570312 C 412.28125 340.75 413.027344 339.890625 413.730469 338.992188 C 414.4375 338.097656 415.09375 337.167969 415.707031 336.207031 C 416.320312 335.25 416.886719 334.261719 417.402344 333.242188 C 417.917969 332.226562 418.382812 331.1875 418.800781 330.125 C 419.214844 329.066406 419.574219 327.984375 419.882812 326.886719 C 420.191406 325.789062 420.445312 324.679688 420.644531 323.558594 C 420.84375 322.4375 420.988281 321.308594 421.074219 320.171875 C 421.164062 319.035156 421.195312 317.898438 421.171875 316.757812 L 421.171875 105.820312 C 421.171875 86.203125 437.0625 70.3125 456.75 70.3125 C 458.296875 70.3125 465.1875 70.3125 472.710938 74.109375 M 632.8125 386.71875 C 632.8125 381.539062 632.941406 376.367188 633.195312 371.195312 C 633.449219 366.019531 633.828125 360.859375 634.335938 355.707031 C 634.84375 350.550781 635.476562 345.414062 636.238281 340.292969 C 636.996094 335.171875 637.882812 330.070312 638.890625 324.992188 C 639.902344 319.914062 641.035156 314.859375 642.292969 309.839844 C 643.554688 304.816406 644.933594 299.824219 646.4375 294.871094 C 647.941406 289.914062 649.5625 285 651.308594 280.125 C 653.054688 275.25 654.914062 270.417969 656.898438 265.636719 C 658.878906 260.851562 660.976562 256.117188 663.191406 251.4375 C 665.40625 246.757812 667.730469 242.132812 670.171875 237.566406 C 672.613281 233 675.164062 228.496094 677.828125 224.054688 C 680.488281 219.613281 683.257812 215.238281 686.136719 210.933594 C 689.011719 206.628906 691.996094 202.394531 695.078125 198.234375 C 698.164062 194.078125 701.347656 189.996094 704.632812 185.992188 C 707.917969 181.988281 711.300781 178.070312 714.777344 174.234375 C 718.253906 170.394531 721.824219 166.648438 725.484375 162.984375 C 729.148438 159.324219 732.894531 155.753906 736.734375 152.277344 C 740.570312 148.800781 744.488281 145.417969 748.492188 142.132812 C 752.496094 138.847656 756.578125 135.664062 760.734375 132.578125 C 764.894531 129.496094 769.128906 126.511719 773.433594 123.636719 C 777.738281 120.757812 782.113281 117.988281 786.554688 115.328125 C 790.996094 112.664062 795.5 110.113281 800.066406 107.671875 C 804.632812 105.230469 809.257812 102.90625 813.9375 100.691406 C 818.617188 98.476562 823.351562 96.378906 828.136719 94.398438 C 832.917969 92.414062 837.75 90.554688 842.625 88.808594 C 847.5 87.0625 852.414062 85.441406 857.371094 83.9375 C 862.324219 82.433594 867.316406 81.054688 872.339844 79.792969 C 877.359375 78.535156 882.414062 77.402344 887.492188 76.390625 C 892.570312 75.382812 897.671875 74.496094 902.792969 73.738281 C 907.914062 72.976562 913.050781 72.34375 918.207031 71.835938 C 923.359375 71.328125 928.519531 70.949219 933.695312 70.695312 C 938.867188 70.441406 944.039062 70.3125 949.21875 70.3125 C 950.371094 70.3125 951.519531 70.367188 952.664062 70.480469 C 953.808594 70.59375 954.949219 70.761719 956.078125 70.988281 C 957.207031 71.210938 958.320312 71.492188 959.425781 71.828125 C 960.527344 72.160156 961.609375 72.546875 962.671875 72.988281 C 963.734375 73.429688 964.777344 73.921875 965.792969 74.464844 C 966.804688 75.007812 967.792969 75.597656 968.75 76.238281 C 969.707031 76.878906 970.632812 77.5625 971.523438 78.292969 C 972.410156 79.023438 973.265625 79.796875 974.078125 80.609375 C 974.890625 81.421875 975.664062 82.277344 976.394531 83.164062 C 977.125 84.054688 977.808594 84.980469 978.449219 85.9375 C 979.089844 86.894531 979.679688 87.878906 980.222656 88.894531 C 980.765625 89.910156 981.257812 90.953125 981.699219 92.015625 C 982.140625 93.078125 982.527344 94.160156 982.859375 95.261719 C 983.195312 96.363281 983.476562 97.480469 983.699219 98.609375 C 983.925781 99.738281 984.09375 100.875 984.207031 102.023438 C 984.320312 103.167969 984.375 104.316406 984.375 105.46875 L 984.375 525.445312 L 985.710938 537.890625 C 991.304688 590.367188 996.671875 642.867188 1001.8125 695.390625 C 1010.460938 783.703125 1019.53125 882.703125 1019.53125 914.0625 C 1019.53125 916.363281 1019.476562 918.664062 1019.363281 920.960938 C 1019.25 923.261719 1019.078125 925.554688 1018.855469 927.847656 C 1018.628906 930.136719 1018.347656 932.417969 1018.007812 934.695312 C 1017.671875 936.972656 1017.277344 939.238281 1016.828125 941.496094 C 1016.378906 943.753906 1015.875 946 1015.316406 948.230469 C 1014.757812 950.464844 1014.144531 952.679688 1013.476562 954.882812 C 1012.808594 957.085938 1012.085938 959.269531 1011.3125 961.4375 C 1010.535156 963.605469 1009.707031 965.75 1008.828125 967.878906 C 1007.945312 970.003906 1007.011719 972.105469 1006.03125 974.1875 C 1005.046875 976.269531 1004.011719 978.324219 1002.925781 980.351562 C 1001.839844 982.382812 1000.707031 984.382812 999.523438 986.359375 C 998.339844 988.332031 997.109375 990.277344 995.832031 992.1875 C 994.554688 994.101562 993.226562 995.984375 991.855469 997.832031 C 990.484375 999.679688 989.070312 1001.496094 987.609375 1003.273438 C 986.152344 1005.054688 984.648438 1006.796875 983.101562 1008.5 C 981.558594 1010.207031 979.96875 1011.871094 978.34375 1013.5 C 976.714844 1015.125 975.050781 1016.714844 973.34375 1018.257812 C 971.640625 1019.804688 969.898438 1021.308594 968.117188 1022.765625 C 966.339844 1024.226562 964.523438 1025.640625 962.675781 1027.011719 C 960.828125 1028.382812 958.945312 1029.710938 957.03125 1030.988281 C 955.121094 1032.265625 953.175781 1033.496094 951.203125 1034.679688 C 949.226562 1035.863281 947.226562 1036.996094 945.195312 1038.082031 C 943.167969 1039.167969 941.113281 1040.203125 939.03125 1041.1875 C 936.949219 1042.167969 934.847656 1043.101562 932.722656 1043.984375 C 930.59375 1044.863281 928.449219 1045.691406 926.28125 1046.46875 C 924.113281 1047.242188 921.929688 1047.964844 919.726562 1048.632812 C 917.523438 1049.300781 915.308594 1049.914062 913.074219 1050.472656 C 910.84375 1051.03125 908.597656 1051.535156 906.339844 1051.984375 C 904.082031 1052.433594 901.816406 1052.828125 899.539062 1053.164062 C 897.265625 1053.503906 894.980469 1053.785156 892.691406 1054.011719 C 890.398438 1054.234375 888.105469 1054.40625 885.804688 1054.519531 C 883.507812 1054.632812 881.207031 1054.6875 878.90625 1054.6875 C 876.605469 1054.6875 874.304688 1054.632812 872.007812 1054.519531 C 869.707031 1054.40625 867.414062 1054.234375 865.121094 1054.011719 C 862.832031 1053.785156 860.546875 1053.503906 858.273438 1053.164062 C 855.996094 1052.828125 853.730469 1052.433594 851.472656 1051.984375 C 849.214844 1051.535156 846.96875 1051.03125 844.738281 1050.472656 C 842.503906 1049.914062 840.289062 1049.300781 838.085938 1048.632812 C 835.882812 1047.964844 833.699219 1047.242188 831.53125 1046.46875 C 829.363281 1045.691406 827.21875 1044.863281 825.089844 1043.984375 C 822.964844 1043.101562 820.863281 1042.167969 818.78125 1041.1875 C 816.699219 1040.203125 814.644531 1039.167969 812.617188 1038.082031 C 810.585938 1036.996094 808.585938 1035.863281 806.609375 1034.679688 C 804.636719 1033.496094 802.691406 1032.265625 800.777344 1030.988281 C 798.867188 1029.710938 796.984375 1028.382812 795.136719 1027.011719 C 793.289062 1025.640625 791.472656 1024.226562 789.695312 1022.765625 C 787.914062 1021.308594 786.171875 1019.804688 784.46875 1018.257812 C 782.761719 1016.714844 781.097656 1015.125 779.46875 1013.5 C 777.84375 1011.871094 776.253906 1010.207031 774.710938 1008.5 C 773.164062 1006.796875 771.660156 1005.054688 770.203125 1003.273438 C 768.742188 1001.496094 767.324219 999.679688 765.957031 997.832031 C 764.585938 995.984375 763.257812 994.101562 761.980469 992.1875 C 760.703125 990.277344 759.472656 988.332031 758.289062 986.359375 C 757.105469 984.382812 755.972656 982.382812 754.886719 980.351562 C 753.800781 978.324219 752.765625 976.269531 751.78125 974.1875 C 750.796875 972.105469 749.867188 970.003906 748.984375 967.878906 C 748.105469 965.75 747.277344 963.605469 746.5 961.4375 C 745.726562 959.269531 745.003906 957.085938 744.335938 954.882812 C 743.667969 952.679688 743.054688 950.464844 742.496094 948.230469 C 741.9375 946 741.433594 943.753906 740.984375 941.496094 C 740.535156 939.238281 740.140625 936.972656 739.804688 934.695312 C 739.464844 932.417969 739.183594 930.136719 738.957031 927.847656 C 738.734375 925.554688 738.5625 923.261719 738.449219 920.960938 C 738.335938 918.664062 738.28125 916.363281 738.28125 914.0625 C 738.28125 882.703125 747.351562 783.703125 756 695.390625 C 760.429688 650.601562 764.859375 607.710938 768.164062 575.929688 L 769.570312 562.5 L 703.125 562.5 C 701.972656 562.5 700.824219 562.472656 699.675781 562.414062 C 698.527344 562.359375 697.378906 562.273438 696.234375 562.160156 C 695.089844 562.046875 693.945312 561.90625 692.808594 561.738281 C 691.667969 561.570312 690.535156 561.375 689.40625 561.148438 C 688.277344 560.925781 687.15625 560.671875 686.039062 560.394531 C 684.925781 560.113281 683.816406 559.804688 682.714844 559.472656 C 681.613281 559.136719 680.519531 558.777344 679.4375 558.390625 C 678.355469 558.003906 677.28125 557.589844 676.21875 557.148438 C 675.152344 556.707031 674.101562 556.242188 673.0625 555.75 C 672.023438 555.257812 670.996094 554.738281 669.980469 554.199219 C 668.964844 553.65625 667.964844 553.089844 666.976562 552.496094 C 665.988281 551.90625 665.019531 551.289062 664.0625 550.648438 C 663.105469 550.011719 662.164062 549.347656 661.238281 548.664062 C 660.316406 547.976562 659.410156 547.269531 658.519531 546.539062 C 657.628906 545.808594 656.757812 545.058594 655.90625 544.285156 C 655.054688 543.511719 654.21875 542.71875 653.40625 541.90625 C 652.59375 541.09375 651.800781 540.257812 651.027344 539.40625 C 650.253906 538.554688 649.503906 537.683594 648.773438 536.792969 C 648.042969 535.902344 647.335938 534.996094 646.648438 534.074219 C 645.964844 533.148438 645.300781 532.207031 644.664062 531.25 C 644.023438 530.292969 643.40625 529.320312 642.816406 528.335938 C 642.222656 527.347656 641.65625 526.347656 641.113281 525.332031 C 640.574219 524.316406 640.054688 523.289062 639.5625 522.25 C 639.070312 521.210938 638.605469 520.15625 638.164062 519.09375 C 637.722656 518.03125 637.308594 516.957031 636.921875 515.875 C 636.535156 514.792969 636.175781 513.699219 635.839844 512.597656 C 635.507812 511.496094 635.199219 510.386719 634.917969 509.273438 C 634.640625 508.15625 634.386719 507.035156 634.164062 505.90625 C 633.9375 504.777344 633.742188 503.644531 633.574219 502.503906 C 633.40625 501.367188 633.265625 500.222656 633.152344 499.078125 C 633.039062 497.933594 632.953125 496.785156 632.898438 495.636719 C 632.839844 494.488281 632.8125 493.339844 632.8125 492.1875 Z M 632.8125 386.71875 " fill-opacity="1" fill-rule="nonzero"/></svg>